<svg width="45" height="14" fill="none" xmlns="http://www.w3.org/2000/svg">
    <g clip-path="url(#a)">
        <path fill-rule="evenodd" clip-rule="evenodd" d="m7.655 7.96 2.591-3.864a.612.612 0 0 1 .51-.272H13.068a.61.61 0 0 1 .544.33l1.84 3.54a.087.087 0 0 0 .157-.003l1.69-3.519a.613.613 0 0 1 .552-.349h1.081l-4.891 9.813h-1.493l2.176-4.263a.175.175 0 0 0 0-.162L11.99 3.825l-1.676 2.634a.177.177 0 0 0-.008.177l2.019 3.917h-1.168a.614.614 0 0 1-.542-.329L9.353 7.842a.086.086 0 0 0-.15-.007l-1.84 2.718H6.229V.365h1.306v7.56c-.001.065.083.09.12.035zm15.737-6.427h-2.124c-.643.02-1.028.522-1.03 1.244v1.046h2.338l-.544 1.126H20.24v5.605h-1.306v-7.71c0-1.418.862-2.456 2.26-2.479h2.198v1.168zM3.17 6.557c-1.014-.242-1.4-.375-1.4-.925s.478-.777 1.228-.777c.666 0 1.169.23 1.567.517l.524-1.048c-.52-.375-1.271-.637-2.093-.637-1.56 0-2.533.751-2.533 2.024 0 1.06.667 1.61 2.227 1.97 1.026.242 1.426.442 1.426.992 0 .576-.546.844-1.346.844-.76 0-1.397-.245-1.884-.637L.343 9.967c.6.437 1.471.716 2.411.716 1.64 0 2.68-.818 2.68-2.091 0-1.016-.704-1.66-2.264-2.035zm23.302 2.887h.4l-.585 1.172c-1.53-.022-2.285-1.075-2.285-2.493V.365h1.315V8.19c0 .742.484 1.255 1.155 1.255zm18.185-5.62H42.6a.613.613 0 0 0-.552.345l-1.765 3.644a.087.087 0 0 1-.157 0l-1.788-3.7a.154.154 0 0 0-.277 0l-1.788 3.7a.087.087 0 0 1-.157 0L34.35 4.17a.613.613 0 0 0-.553-.345H32.73l3.286 6.653a.155.155 0 0 0 .276.002l1.814-3.646a.087.087 0 0 1 .157.002l1.766 3.644a.155.155 0 0 0 .275.001l2.624-5.208a1.46 1.46 0 0 1 .437-.508l1.292-.942zM33.186 7.18c0-2.154-1.204-3.5-3.21-3.5-2.007 0-3.21 1.346-3.21 3.5s1.203 3.5 3.21 3.5c2.006 0 3.21-1.346 3.21-3.5zm-1.302.002c0 1.508-.682 2.332-1.908 2.332-1.228 0-1.908-.824-1.908-2.332 0-1.509.681-2.333 1.908-2.333 1.226 0 1.908.824 1.908 2.333z" fill="#403E6B"/>
    </g>
    <defs>
        <clipPath id="a">
            <path fill="#fff" d="M0 0h45v14H0z"/>
        </clipPath>
    </defs>
</svg>
